<svg xmlns="http://www.w3.org/2000/svg" viewBox="0 0 90 90"><defs><style>.cls-1{fill:#1b55e2;}.cls-2{fill:#e2a03f;}.cls-3{fill:#e7515a;}.cls-4{fill:none;}.cls-4,.cls-9{stroke:#000;stroke-linecap:round;stroke-linejoin:round;stroke-width:2px;}.cls-5{fill:#fff;}.cls-6{fill:#bae7ff;}.cls-7{fill:#c2d5ff;}.cls-8{fill:#ccdcff;}</style></defs><title>アートボード 2</title><g id="Layer_3" data-name="Layer 3"><path class="cls-1" d="M13.36,22.5A3.52,3.52,0,1,1,16.88,19,3.53,3.53,0,0,1,13.36,22.5Zm0-5.62A2.11,2.11,0,1,0,15.47,19,2.1,2.1,0,0,0,13.36,16.88Z"/><path class="cls-2" d="M79.45,78.75A3.52,3.52,0,1,1,83,75.23,3.52,3.52,0,0,1,79.45,78.75Zm0-5.63a2.11,2.11,0,1,0,2.11,2.11A2.12,2.12,0,0,0,79.45,73.12Z"/><path class="cls-2" d="M74.29,16.47l-1.09-.6a1.3,1.3,0,0,1-.48-.48l-.59-1.09a.47.47,0,0,0-.41-.24.46.46,0,0,0-.41.24c-.08.15-.48.89-.6,1.09a1.21,1.21,0,0,1-.47.48l-1.09.6a.46.46,0,0,0,0,.81l1.09.6a1.21,1.21,0,0,1,.47.48c.12.2.52.94.6,1.09a.46.46,0,0,0,.41.24.47.47,0,0,0,.41-.24l.59-1.09a1.3,1.3,0,0,1,.48-.48l1.09-.6a.46.46,0,0,0,0-.81Z"/><path class="cls-2" d="M32.1,82.56,31,82a1.12,1.12,0,0,1-.47-.47c-.12-.2-.52-.95-.6-1.09a.46.46,0,0,0-.41-.24.47.47,0,0,0-.41.24l-.59,1.09a1.2,1.2,0,0,1-.48.47l-1.09.6a.46.46,0,0,0-.24.41.47.47,0,0,0,.24.41l1.09.59a1.3,1.3,0,0,1,.48.48l.59,1.09a.47.47,0,0,0,.41.24.46.46,0,0,0,.41-.24c.08-.15.48-.89.6-1.09A1.21,1.21,0,0,1,31,84l1.09-.59a.47.47,0,0,0,.24-.41A.46.46,0,0,0,32.1,82.56Z"/><path class="cls-3" d="M64.51,83.37l-.82-.45a.89.89,0,0,1-.36-.36c-.08-.15-.38-.71-.45-.82a.34.34,0,0,0-.3-.18.35.35,0,0,0-.31.18c-.06.11-.36.67-.45.82a.87.87,0,0,1-.35.36l-.82.45a.35.35,0,0,0-.18.3.35.35,0,0,0,.18.31l.82.45a.84.84,0,0,1,.35.35c.09.15.39.71.45.82a.35.35,0,0,0,.31.18.34.34,0,0,0,.3-.18c.07-.11.37-.67.45-.82a.87.87,0,0,1,.36-.35l.82-.45a.35.35,0,0,0,.18-.31A.35.35,0,0,0,64.51,83.37Z"/><path class="cls-3" d="M28,10.24l-.82-.45a.87.87,0,0,1-.36-.35c-.08-.16-.38-.71-.45-.82a.35.35,0,0,0-.3-.18.35.35,0,0,0-.31.18c-.06.11-.37.66-.45.82a.81.81,0,0,1-.36.35l-.81.45a.33.33,0,0,0-.18.31.33.33,0,0,0,.18.3l.81.45a.83.83,0,0,1,.36.36l.45.82a.35.35,0,0,0,.31.18.35.35,0,0,0,.3-.18c.07-.11.37-.67.45-.82a.89.89,0,0,1,.36-.36l.82-.45a.34.34,0,0,0,.17-.3A.34.34,0,0,0,28,10.24Z"/><path class="cls-1" d="M11.07,72.12l-.82-.45a1,1,0,0,1-.36-.36l-.44-.82a.36.36,0,0,0-.62,0l-.44.82a1,1,0,0,1-.36.36l-.82.45a.35.35,0,0,0-.18.3.35.35,0,0,0,.18.31l.82.45a.93.93,0,0,1,.36.35l.44.82a.36.36,0,0,0,.62,0l.44-.82a.93.93,0,0,1,.36-.35l.82-.45a.35.35,0,0,0,.18-.31A.35.35,0,0,0,11.07,72.12Z"/><circle class="cls-3" cx="6.68" cy="30.59" r="1.05"/><circle class="cls-1" cx="58.71" cy="13.71" r="1.05"/><circle class="cls-1" cx="50.27" cy="84.02" r="1.05"/><circle class="cls-1" cx="41.48" cy="89.3" r="0.7"/><circle class="cls-3" cx="89.3" cy="62.58" r="0.7"/><circle class="cls-1" cx="0.7" cy="66.8" r="0.7"/><circle class="cls-3" cx="16.17" cy="83.67" r="0.7"/><circle class="cls-1" cx="35.86" cy="0.7" r="0.7"/><circle class="cls-3" cx="82.97" cy="28.13" r="1.41"/><line class="cls-4" x1="45" y1="18.28" x2="45" y2="9.84"/><path class="cls-5" d="M56.25,28.12a9.85,9.85,0,0,0-9.84-9.84H43.59a9.85,9.85,0,0,0-9.84,9.84v1.41h22.5Z"/><path class="cls-6" d="M56.25,28.12a9.85,9.85,0,0,0-9.84-9.84H43.59a9.83,9.83,0,0,0-6.19,2.19,8.43,8.43,0,0,1,13.22,7v2.11h5.63Z"/><path class="cls-4" d="M52.5,20.39a9.82,9.82,0,0,0-6.09-2.11H43.59a9.82,9.82,0,0,0-6.09,2.11"/><circle class="cls-5" cx="45" cy="7.03" r="2.81"/><path class="cls-6" d="M45.34,4.24a2.82,2.82,0,0,1-2.45,4.2l-.34,0a2.81,2.81,0,1,0,2.79-4.18Z"/><circle class="cls-4" cx="45" cy="7.03" r="2.81"/><path class="cls-5" d="M85.78,49.22a9.84,9.84,0,0,1-9.84,9.84H74.53V39.38h1.41A9.84,9.84,0,0,1,85.78,49.22Z"/><path class="cls-5" d="M4.22,49.22a9.84,9.84,0,0,0,9.84,9.84h1.41V39.38H14.06A9.84,9.84,0,0,0,4.22,49.22Z"/><path class="cls-5" d="M81.56,49.22A25.31,25.31,0,0,1,56.25,74.53H33.75a25.31,25.31,0,0,1,0-50.62h22.5A25.31,25.31,0,0,1,81.56,49.22Z"/><path class="cls-6" d="M79.91,40.21a25.31,25.31,0,0,0-23.66-16.3H54.14a23.2,23.2,0,1,1,0,46.4H31.64A23.18,23.18,0,0,1,12.5,60.23a5.72,5.72,0,0,0-2.41-2,25.31,25.31,0,0,0,23.66,16.3h22.5a25.31,25.31,0,0,0,23.66-16.3,9.85,9.85,0,0,0,0-18Z"/><path class="cls-4" d="M14.63,32.63a25.11,25.11,0,0,0-4.54,7.58,9.85,9.85,0,0,0,0,18,25.31,25.31,0,0,0,23.66,16.3h22.5a25.24,25.24,0,0,0,11.5-2.75"/><path class="cls-4" d="M71.25,69.61c.38-.28.75-.57,1.11-.86"/><path class="cls-4" d="M22.25,26.66a25.24,25.24,0,0,1,11.5-2.75h22.5a25.31,25.31,0,0,1,23.66,16.3,9.85,9.85,0,0,1,0,18,25.11,25.11,0,0,1-4.54,7.58"/><path class="cls-4" d="M18.75,28.83c-.38.28-.75.56-1.11.86"/><path class="cls-6" d="M71.72,49.22A14.06,14.06,0,0,1,57.66,63.28H32.34a14.06,14.06,0,0,1,0-28.12H57.66A14.06,14.06,0,0,1,71.72,49.22Z"/><path class="cls-5" d="M71.72,49.22A14.06,14.06,0,0,0,57.66,35.16H56.25a12.66,12.66,0,1,1,0,25.31H30.94a12.66,12.66,0,0,1-12.64-12c0,.24,0,.49,0,.73A14.06,14.06,0,0,0,32.34,63.28H57.66A14.06,14.06,0,0,0,71.72,49.22Z"/><path class="cls-7" d="M21.09,50.62A12.66,12.66,0,0,1,33.75,38H59.06a12.65,12.65,0,0,1,12.64,12c0-.24,0-.48,0-.72A14.06,14.06,0,0,0,57.66,35.16H32.34a14.06,14.06,0,0,0,0,28.12h1.41A12.66,12.66,0,0,1,21.09,50.62Z"/><path class="cls-8" d="M23.51,58.06a12.64,12.64,0,0,1-5.21-9.57c0,.24,0,.49,0,.73A14.06,14.06,0,0,0,32.34,63.28h1.41A12.64,12.64,0,0,1,23.51,58.06Z"/><path class="cls-8" d="M71.72,49.22A14.06,14.06,0,0,0,57.66,35.16H56.25a12.62,12.62,0,0,1,10.24,5.22,12.63,12.63,0,0,1,5.21,9.56C71.71,49.7,71.72,49.46,71.72,49.22Z"/><path class="cls-4" d="M71.72,49.22A14.06,14.06,0,0,1,57.66,63.28H32.34a14.06,14.06,0,0,1,0-28.12H57.66A14.06,14.06,0,0,1,71.72,49.22Z"/><path class="cls-4" d="M41.48,53.44a5.13,5.13,0,0,0,7,0"/><path class="cls-7" d="M64.69,52.73a2.12,2.12,0,0,0-2.11-2.11H61.17a2.11,2.11,0,1,0,0,4.22h1.41A2.11,2.11,0,0,0,64.69,52.73Z"/><path class="cls-7" d="M25.31,52.73a2.12,2.12,0,0,1,2.11-2.11h1.41a2.11,2.11,0,0,1,0,4.22H27.42A2.11,2.11,0,0,1,25.31,52.73Z"/><circle class="cls-9" cx="59.06" cy="47.81" r="1.41"/><circle class="cls-9" cx="30.94" cy="47.81" r="1.41"/></g></svg>