<svg xmlns="http://www.w3.org/2000/svg" viewBox="0 0 90 90"><defs><style>.cls-1{fill:#c2d5ff;}.cls-2{fill:#fff;}.cls-3{fill:#dce7f9;}.cls-4{fill:#ffdcff;}.cls-5{fill:#f8c5f5;}.cls-6{fill:#ffebff;}.cls-7{fill:#f5b9eb;}</style></defs><title>アートボード 4</title><g id="Layer_3" data-name="Layer 3"><rect class="cls-1" width="90" height="90"/><rect class="cls-2" x="44.16" y="25.19" width="1.72" height="6.03"/><path class="cls-2" d="M51.92,36.82a6,6,0,0,0-6-6H44.16a6,6,0,0,0-6,6v.87h13.8Z"/><path class="cls-3" d="M48.9,37.69v-1.3a5.18,5.18,0,0,0-5.17-5.17H43.3a5.22,5.22,0,0,0-2.94.91,6,6,0,0,1,3.8-1.34h1.72a6,6,0,0,1,6,6v.87Z"/><path class="cls-3" d="M44.16,25.19v.7a1.71,1.71,0,0,0,1.29.59,1.54,1.54,0,0,0,.43-.06V25.19Z"/><circle class="cls-2" cx="45.02" cy="23.89" r="1.72"/><path class="cls-3" d="M45.33,22.2a1.7,1.7,0,0,1,.55,1.26,1.73,1.73,0,0,1-1.72,1.73,1.55,1.55,0,0,1-.31,0,1.75,1.75,0,0,0,1.17.46,1.72,1.72,0,0,0,.31-3.42Z"/><path class="cls-2" d="M70,49.75a6,6,0,0,1-6,6h-.87V43.72H64A6,6,0,0,1,70,49.75Z"/><path class="cls-2" d="M20,49.75a6,6,0,0,0,6,6h.87V43.72h-.87A6,6,0,0,0,20,49.75Z"/><path class="cls-2" d="M67.43,49.75A15.51,15.51,0,0,1,51.92,65.27H38.12a15.52,15.52,0,0,1,0-31h13.8A15.5,15.5,0,0,1,67.43,49.75Z"/><path class="cls-3" d="M66.42,44.23a15.51,15.51,0,0,0-14.5-10h-1.3a14.23,14.23,0,1,1,0,28.45H36.83A14.2,14.2,0,0,1,25.1,56.51a3.47,3.47,0,0,0-1.48-1.23,15.51,15.51,0,0,0,14.5,10h13.8a15.51,15.51,0,0,0,14.5-10,6,6,0,0,0,0-11.05Z"/><path class="cls-4" d="M61.4,49.75a8.62,8.62,0,0,1-8.62,8.63H37.26a8.63,8.63,0,0,1,0-17.25H52.78A8.62,8.62,0,0,1,61.4,49.75Z"/><path class="cls-5" d="M30.36,50.62a7.76,7.76,0,0,1,7.76-7.76H53.64a7.76,7.76,0,0,1,7.75,7.34c0-.15,0-.3,0-.45a8.62,8.62,0,0,0-8.62-8.62H37.26a8.63,8.63,0,0,0,0,17.25h.86A7.77,7.77,0,0,1,30.36,50.62Z"/><path class="cls-6" d="M61.4,49.75a8.62,8.62,0,0,0-8.62-8.62h-.86a7.76,7.76,0,0,1,0,15.52H36.4a7.76,7.76,0,0,1-7.75-7.34c0,.15,0,.3,0,.44a8.62,8.62,0,0,0,8.62,8.63H52.78A8.62,8.62,0,0,0,61.4,49.75Z"/><path class="cls-2" d="M31.84,55.17a7.76,7.76,0,0,1-3.19-5.86c0,.15,0,.3,0,.44a8.62,8.62,0,0,0,8.62,8.63h.86A7.76,7.76,0,0,1,31.84,55.17Z"/><path class="cls-2" d="M61.4,49.75a8.62,8.62,0,0,0-8.62-8.62h-.86a7.76,7.76,0,0,1,6.28,3.21,7.76,7.76,0,0,1,3.19,5.86C61.4,50.05,61.4,49.9,61.4,49.75Z"/><path d="M45,54.07A3.93,3.93,0,0,1,42.25,53a.88.88,0,0,1,0-1.22.87.87,0,0,1,1.22,0,2.27,2.27,0,0,0,3.1,0A.86.86,0,0,1,47.78,53,3.89,3.89,0,0,1,45,54.07Z"/><path class="cls-7" d="M57.09,51.91a1.29,1.29,0,0,0-1.29-1.29h-.87a1.29,1.29,0,1,0,0,2.58h.87A1.29,1.29,0,0,0,57.09,51.91Z"/><path class="cls-7" d="M33,51.91a1.29,1.29,0,0,1,1.29-1.29h.87a1.29,1.29,0,1,1,0,2.58h-.87A1.29,1.29,0,0,1,33,51.91Z"/><circle cx="53.64" cy="48.89" r="1.72"/><circle cx="36.4" cy="48.89" r="1.72"/></g></svg>